<?xml version="1.0" encoding="UTF-8"?>
<svg width="45px" height="31px" viewBox="0 0 45 31" version="1.1" xmlns="http://www.w3.org/2000/svg" xmlns:xlink="http://www.w3.org/1999/xlink">
    <!-- Generator: Sketch 42 (36781) - http://www.bohemiancoding.com/sketch -->
    <title>ico-upload</title>
    <desc>Created with Sketch.</desc>
    <defs></defs>
    <g id="Symbols" stroke="none" stroke-width="1" fill="none" fill-rule="evenodd">
        <g id="3web_upload" transform="translate(-811.000000, -353.000000)" fill="#E2E3E9">
            <g id="TextArea-Feeback" transform="translate(675.000000, 241.000000)">
                <path d="M175.066234,123.802709 C175.327234,121.999709 175.114234,120.049709 174.110234,118.002709 C172.566234,114.856709 169.506234,112.540709 165.973234,112.090709 C161.683234,111.544709 157.815234,113.511709 155.679234,116.694709 C155.144234,117.491709 154.015234,117.646709 153.216234,117.102709 C151.458234,115.905709 149.162234,115.426709 146.723234,116.144709 C145.411234,116.530709 144.279234,117.310709 143.387234,118.328709 C141.559234,120.415709 141.373234,122.303709 141.571234,123.873709 C141.671234,124.670709 141.208234,125.422709 140.495234,125.817709 C137.670234,127.384709 135.805234,130.410709 136.016234,133.866709 C136.301234,138.519709 140.530234,142.011709 145.287234,142.011709 L152.994234,142.011709 C154.471234,142.011709 156.019234,141.455709 156.019234,140.007709 L156.019234,137.007709 C156.019234,136.360709 154.680234,136.007709 154.019234,136.007709 L151.863234,135.992709 C151.133234,135.992709 150.734234,135.117709 151.201234,134.540709 L158.019234,126.007709 C158.496234,125.447709 159.543234,125.447709 160.019234,126.007709 L166.807234,134.540709 C167.275234,135.117709 166.876234,135.992709 166.146234,135.992709 L164.019234,136.007709 C163.359234,136.007709 162.019234,136.360709 162.019234,137.007709 L162.019234,140.007709 C162.019234,141.455709 163.687234,142.011709 165.164234,142.011709 L171.831234,142.011709 C176.224234,142.011709 180.202234,139.014709 180.897234,134.764709 C181.556234,130.731709 179.368234,127.155709 176.009234,125.564709 C175.331234,125.244709 174.961234,124.532709 175.066234,123.802709 Z" id="ico-upload"></path>
            </g>
        </g>
    </g>
</svg>